<mxfile host="app.diagrams.net" agent="Mozilla/5.0 (Windows NT 10.0; Win64; x64) AppleWebKit/537.36 (KHTML, like Gecko) Chrome/133.0.0.0 Safari/537.36" version="26.0.15">
  <diagram name="PÃ¡gina-1" id="kWVvZbGXdmjbfpQ6RwCb">
    <mxGraphModel dx="1050" dy="569" grid="1" gridSize="10" guides="1" tooltips="1" connect="1" arrows="1" fold="1" page="1" pageScale="1" pageWidth="827" pageHeight="1169" math="0" shadow="0">
      <root>
        <mxCell id="0" />
        <mxCell id="1" parent="0" />
        <mxCell id="h0jYvW_nCPDPX-_wt_Re-1" value="SIMPLEREPORT(BACKEND)" style="verticalAlign=top;align=center;spacingTop=8;spacingLeft=2;spacingRight=12;shape=cube;size=10;direction=south;fontStyle=5;html=1;whiteSpace=wrap;fillColor=#dae8fc;strokeColor=#6c8ebf;fontSize=19;" vertex="1" parent="1">
          <mxGeometry x="50.5" y="120" width="995" height="900" as="geometry" />
        </mxCell>
        <mxCell id="h0jYvW_nCPDPX-_wt_Re-2" value="LOGGING" style="shape=folder;fontStyle=1;spacingTop=10;tabWidth=40;tabHeight=14;tabPosition=left;html=1;whiteSpace=wrap;verticalAlign=middle;fillColor=#ffe6cc;strokeColor=#d79b00;" vertex="1" parent="1">
          <mxGeometry x="414" y="900" width="148" height="70" as="geometry" />
        </mxCell>
        <mxCell id="h0jYvW_nCPDPX-_wt_Re-3" value="IDP" style="shape=folder;fontStyle=1;spacingTop=10;tabWidth=40;tabHeight=14;tabPosition=left;html=1;whiteSpace=wrap;verticalAlign=top;fillColor=#ffe6cc;strokeColor=#d79b00;" vertex="1" parent="1">
          <mxGeometry x="720" y="585" width="274" height="180" as="geometry" />
        </mxCell>
        <mxCell id="h0jYvW_nCPDPX-_wt_Re-4" value="DB" style="shape=folder;fontStyle=1;spacingTop=10;tabWidth=40;tabHeight=14;tabPosition=left;html=1;whiteSpace=wrap;verticalAlign=top;fillColor=#ffe6cc;strokeColor=#d79b00;" vertex="1" parent="1">
          <mxGeometry x="411" y="585" width="274" height="180" as="geometry" />
        </mxCell>
        <mxCell id="h0jYvW_nCPDPX-_wt_Re-5" value="CONFIG" style="shape=folder;fontStyle=1;spacingTop=10;tabWidth=40;tabHeight=14;tabPosition=left;html=1;whiteSpace=wrap;verticalAlign=top;fillColor=#ffe6cc;strokeColor=#d79b00;" vertex="1" parent="1">
          <mxGeometry x="96" y="585" width="274" height="180" as="geometry" />
        </mxCell>
        <mxCell id="h0jYvW_nCPDPX-_wt_Re-6" value="&amp;nbsp; &amp;nbsp; &amp;nbsp; &amp;nbsp; &amp;nbsp; &amp;nbsp; &amp;nbsp; &amp;nbsp; &amp;nbsp; &amp;nbsp; &amp;nbsp; &amp;nbsp; APP" style="shape=folder;fontStyle=1;spacingTop=10;tabWidth=210;tabHeight=40;tabPosition=left;html=1;whiteSpace=wrap;verticalAlign=top;fillColor=#ffe6cc;strokeColor=#d79b00;align=left;fontSize=14;" vertex="1" parent="1">
          <mxGeometry x="158" y="180" width="790" height="310" as="geometry" />
        </mxCell>
        <mxCell id="h0jYvW_nCPDPX-_wt_Re-7" value="SERVICE" style="shape=folder;fontStyle=1;spacingTop=10;tabWidth=40;tabHeight=14;tabPosition=left;html=1;whiteSpace=wrap;verticalAlign=top;fillColor=#ffe6cc;strokeColor=#d79b00;" vertex="1" parent="1">
          <mxGeometry x="96" y="790" width="274" height="180" as="geometry" />
        </mxCell>
        <mxCell id="h0jYvW_nCPDPX-_wt_Re-8" value="EMAIL" style="shape=folder;fontStyle=1;spacingTop=10;tabWidth=40;tabHeight=14;tabPosition=left;html=1;whiteSpace=wrap;fillColor=#fff2cc;strokeColor=#d6b656;" vertex="1" parent="1">
          <mxGeometry x="102" y="830" width="70" height="50" as="geometry" />
        </mxCell>
        <mxCell id="h0jYvW_nCPDPX-_wt_Re-9" value="ERRORS" style="shape=folder;fontStyle=1;spacingTop=10;tabWidth=40;tabHeight=14;tabPosition=left;html=1;whiteSpace=wrap;fillColor=#fff2cc;strokeColor=#d6b656;" vertex="1" parent="1">
          <mxGeometry x="182" y="830" width="70" height="50" as="geometry" />
        </mxCell>
        <mxCell id="h0jYvW_nCPDPX-_wt_Re-10" value="ID VERIFICATION" style="shape=folder;fontStyle=1;spacingTop=10;tabWidth=40;tabHeight=14;tabPosition=left;html=1;whiteSpace=wrap;fillColor=#fff2cc;strokeColor=#d6b656;" vertex="1" parent="1">
          <mxGeometry x="262" y="830" width="90" height="50" as="geometry" />
        </mxCell>
        <mxCell id="h0jYvW_nCPDPX-_wt_Re-11" value="MODEL" style="shape=folder;fontStyle=1;spacingTop=10;tabWidth=40;tabHeight=14;tabPosition=left;html=1;whiteSpace=wrap;fillColor=#fff2cc;strokeColor=#d6b656;" vertex="1" parent="1">
          <mxGeometry x="102" y="900" width="70" height="50" as="geometry" />
        </mxCell>
        <mxCell id="h0jYvW_nCPDPX-_wt_Re-12" value="SMS" style="shape=folder;fontStyle=1;spacingTop=10;tabWidth=40;tabHeight=14;tabPosition=left;html=1;whiteSpace=wrap;fillColor=#fff2cc;strokeColor=#d6b656;" vertex="1" parent="1">
          <mxGeometry x="182" y="900" width="70" height="50" as="geometry" />
        </mxCell>
        <mxCell id="h0jYvW_nCPDPX-_wt_Re-13" value="SUPPORT ESCALATION" style="shape=folder;fontStyle=1;spacingTop=10;tabWidth=40;tabHeight=14;tabPosition=left;html=1;whiteSpace=wrap;fillColor=#fff2cc;strokeColor=#d6b656;" vertex="1" parent="1">
          <mxGeometry x="262" y="900" width="90" height="50" as="geometry" />
        </mxCell>
        <mxCell id="h0jYvW_nCPDPX-_wt_Re-14" value="AUTHENTICATION" style="shape=folder;fontStyle=1;spacingTop=10;tabWidth=40;tabHeight=14;tabPosition=left;html=1;whiteSpace=wrap;fillColor=#fff2cc;strokeColor=#d6b656;" vertex="1" parent="1">
          <mxGeometry x="730" y="610" width="130" height="65" as="geometry" />
        </mxCell>
        <mxCell id="h0jYvW_nCPDPX-_wt_Re-15" value="REPOSITORIES" style="shape=folder;fontStyle=1;spacingTop=10;tabWidth=40;tabHeight=14;tabPosition=left;html=1;whiteSpace=wrap;fillColor=#fff2cc;strokeColor=#d6b656;" vertex="1" parent="1">
          <mxGeometry x="850" y="685" width="130" height="70" as="geometry" />
        </mxCell>
        <mxCell id="h0jYvW_nCPDPX-_wt_Re-16" value="REPOSITORY" style="shape=folder;fontStyle=1;spacingTop=10;tabWidth=40;tabHeight=14;tabPosition=left;html=1;whiteSpace=wrap;fillColor=#fff2cc;strokeColor=#d6b656;" vertex="1" parent="1">
          <mxGeometry x="544" y="685" width="130" height="65" as="geometry" />
        </mxCell>
        <mxCell id="h0jYvW_nCPDPX-_wt_Re-17" value="MODEL" style="shape=folder;fontStyle=1;spacingTop=10;tabWidth=40;tabHeight=14;tabPosition=left;html=1;whiteSpace=wrap;fillColor=#fff2cc;strokeColor=#d6b656;" vertex="1" parent="1">
          <mxGeometry x="423" y="610" width="130" height="65" as="geometry" />
        </mxCell>
        <mxCell id="h0jYvW_nCPDPX-_wt_Re-18" value="AUTHORIZATION" style="shape=folder;fontStyle=1;spacingTop=10;tabWidth=40;tabHeight=14;tabPosition=left;html=1;whiteSpace=wrap;fillColor=#fff2cc;strokeColor=#d6b656;" vertex="1" parent="1">
          <mxGeometry x="102" y="615" width="120" height="65" as="geometry" />
        </mxCell>
        <mxCell id="h0jYvW_nCPDPX-_wt_Re-19" value="SCALARS" style="shape=folder;fontStyle=1;spacingTop=10;tabWidth=40;tabHeight=14;tabPosition=left;html=1;whiteSpace=wrap;fillColor=#fff2cc;strokeColor=#d6b656;" vertex="1" parent="1">
          <mxGeometry x="102" y="690" width="120" height="60" as="geometry" />
        </mxCell>
        <mxCell id="h0jYvW_nCPDPX-_wt_Re-20" value="SIMPLE REPORT" style="shape=folder;fontStyle=1;spacingTop=10;tabWidth=40;tabHeight=14;tabPosition=left;html=1;whiteSpace=wrap;fillColor=#fff2cc;strokeColor=#d6b656;" vertex="1" parent="1">
          <mxGeometry x="236" y="690" width="120" height="60" as="geometry" />
        </mxCell>
        <mxCell id="h0jYvW_nCPDPX-_wt_Re-21" value="EXCEPTIONS" style="shape=folder;fontStyle=1;spacingTop=10;tabWidth=40;tabHeight=14;tabPosition=left;html=1;whiteSpace=wrap;fillColor=#fff2cc;strokeColor=#d6b656;" vertex="1" parent="1">
          <mxGeometry x="236" y="620" width="120" height="60" as="geometry" />
        </mxCell>
        <mxCell id="h0jYvW_nCPDPX-_wt_Re-22" value="COMMON COMPONENTS" style="shape=folder;fontStyle=1;spacingTop=10;tabWidth=40;tabHeight=14;tabPosition=left;html=1;whiteSpace=wrap;fillColor=#fff2cc;strokeColor=#d6b656;" vertex="1" parent="1">
          <mxGeometry x="788" y="240" width="120" height="60" as="geometry" />
        </mxCell>
        <mxCell id="h0jYvW_nCPDPX-_wt_Re-23" value="TEST QUEUE" style="shape=folder;fontStyle=1;spacingTop=10;tabWidth=40;tabHeight=14;tabPosition=left;html=1;whiteSpace=wrap;fillColor=#fff2cc;strokeColor=#d6b656;" vertex="1" parent="1">
          <mxGeometry x="270" y="400" width="120" height="60" as="geometry" />
        </mxCell>
        <mxCell id="h0jYvW_nCPDPX-_wt_Re-24" value="SIGN UP" style="shape=folder;fontStyle=1;spacingTop=10;tabWidth=40;tabHeight=14;tabPosition=left;html=1;whiteSpace=wrap;fillColor=#fff2cc;strokeColor=#d6b656;" vertex="1" parent="1">
          <mxGeometry x="643" y="320" width="120" height="60" as="geometry" />
        </mxCell>
        <mxCell id="h0jYvW_nCPDPX-_wt_Re-25" value="PATIENTS" style="shape=folder;fontStyle=1;spacingTop=10;tabWidth=40;tabHeight=14;tabPosition=left;html=1;whiteSpace=wrap;fillColor=#fff2cc;strokeColor=#d6b656;" vertex="1" parent="1">
          <mxGeometry x="488" y="320" width="120" height="60" as="geometry" />
        </mxCell>
        <mxCell id="h0jYvW_nCPDPX-_wt_Re-26" value="ANALYTICS" style="shape=folder;fontStyle=1;spacingTop=10;tabWidth=40;tabHeight=14;tabPosition=left;html=1;whiteSpace=wrap;fillColor=#fff2cc;strokeColor=#d6b656;" vertex="1" parent="1">
          <mxGeometry x="643" y="240" width="120" height="60" as="geometry" />
        </mxCell>
        <mxCell id="h0jYvW_nCPDPX-_wt_Re-27" value="ACCOUNT CREATION" style="shape=folder;fontStyle=1;spacingTop=10;tabWidth=40;tabHeight=14;tabPosition=left;html=1;whiteSpace=wrap;fillColor=#fff2cc;strokeColor=#d6b656;" vertex="1" parent="1">
          <mxGeometry x="488" y="240" width="120" height="60" as="geometry" />
        </mxCell>
        <mxCell id="h0jYvW_nCPDPX-_wt_Re-28" value="FACILITY SELECT" style="shape=folder;fontStyle=1;spacingTop=10;tabWidth=40;tabHeight=14;tabPosition=left;html=1;whiteSpace=wrap;fillColor=#fff2cc;strokeColor=#d6b656;" vertex="1" parent="1">
          <mxGeometry x="334" y="320" width="120" height="60" as="geometry" />
        </mxCell>
        <mxCell id="h0jYvW_nCPDPX-_wt_Re-29" value="SNAPSHOTS" style="shape=folder;fontStyle=1;spacingTop=10;tabWidth=40;tabHeight=14;tabPosition=left;html=1;whiteSpace=wrap;fillColor=#fff2cc;strokeColor=#d6b656;" vertex="1" parent="1">
          <mxGeometry x="334" y="240" width="120" height="60" as="geometry" />
        </mxCell>
        <mxCell id="h0jYvW_nCPDPX-_wt_Re-30" value="CONSTANTS" style="shape=folder;fontStyle=1;spacingTop=10;tabWidth=40;tabHeight=14;tabPosition=left;html=1;whiteSpace=wrap;fillColor=#fff2cc;strokeColor=#d6b656;" vertex="1" parent="1">
          <mxGeometry x="184" y="320" width="120" height="60" as="geometry" />
        </mxCell>
        <mxCell id="h0jYvW_nCPDPX-_wt_Re-31" value="SETTINGS" style="shape=folder;fontStyle=1;spacingTop=10;tabWidth=40;tabHeight=14;tabPosition=left;html=1;whiteSpace=wrap;fillColor=#fff2cc;strokeColor=#d6b656;" vertex="1" parent="1">
          <mxGeometry x="184" y="240" width="120" height="60" as="geometry" />
        </mxCell>
        <mxCell id="h0jYvW_nCPDPX-_wt_Re-35" value="UTILS" style="shape=folder;fontStyle=1;spacingTop=10;tabWidth=40;tabHeight=14;tabPosition=left;html=1;whiteSpace=wrap;fillColor=#fff2cc;strokeColor=#d6b656;" vertex="1" parent="1">
          <mxGeometry x="730" y="400" width="120" height="60" as="geometry" />
        </mxCell>
        <mxCell id="h0jYvW_nCPDPX-_wt_Re-36" value="UPLOADS / DEVICELOOKUP" style="shape=folder;fontStyle=1;spacingTop=10;tabWidth=40;tabHeight=14;tabPosition=left;html=1;whiteSpace=wrap;fillColor=#fff2cc;strokeColor=#d6b656;" vertex="1" parent="1">
          <mxGeometry x="580" y="400" width="120" height="60" as="geometry" />
        </mxCell>
        <mxCell id="h0jYvW_nCPDPX-_wt_Re-37" value="TEST RESULTS" style="shape=folder;fontStyle=1;spacingTop=10;tabWidth=40;tabHeight=14;tabPosition=left;html=1;whiteSpace=wrap;fillColor=#fff2cc;strokeColor=#d6b656;" vertex="1" parent="1">
          <mxGeometry x="423" y="400" width="120" height="60" as="geometry" />
        </mxCell>
        <mxCell id="h0jYvW_nCPDPX-_wt_Re-38" value="SUPPORT ADMIN" style="shape=folder;fontStyle=1;spacingTop=10;tabWidth=40;tabHeight=14;tabPosition=left;html=1;whiteSpace=wrap;fillColor=#fff2cc;strokeColor=#d6b656;" vertex="1" parent="1">
          <mxGeometry x="788" y="320" width="120" height="60" as="geometry" />
        </mxCell>
        <mxCell id="h0jYvW_nCPDPX-_wt_Re-39" value="UTILS" style="shape=folder;fontStyle=1;spacingTop=10;tabWidth=40;tabHeight=14;tabPosition=left;html=1;whiteSpace=wrap;verticalAlign=middle;fillColor=#ffe6cc;strokeColor=#d79b00;" vertex="1" parent="1">
          <mxGeometry x="730" y="790" width="148" height="70" as="geometry" />
        </mxCell>
        <mxCell id="h0jYvW_nCPDPX-_wt_Re-40" value="VALIDATORS" style="shape=folder;fontStyle=1;spacingTop=10;tabWidth=40;tabHeight=14;tabPosition=left;html=1;whiteSpace=wrap;verticalAlign=middle;fillColor=#ffe6cc;strokeColor=#d79b00;" vertex="1" parent="1">
          <mxGeometry x="841" y="900" width="148" height="70" as="geometry" />
        </mxCell>
        <mxCell id="h0jYvW_nCPDPX-_wt_Re-41" value="PROPERTIES" style="shape=folder;fontStyle=1;spacingTop=10;tabWidth=40;tabHeight=14;tabPosition=left;html=1;whiteSpace=wrap;verticalAlign=middle;fillColor=#ffe6cc;strokeColor=#d79b00;" vertex="1" parent="1">
          <mxGeometry x="535" y="790" width="148" height="70" as="geometry" />
        </mxCell>
      </root>
    </mxGraphModel>
  </diagram>
</mxfile>
